<svg width="21" height="16" viewBox="0 0 21 16" fill="none" xmlns="http://www.w3.org/2000/svg">
<path d="M1.92856 7.14268H10.4999V8.57124H1.92856V7.14268ZM0.5 3.57129H7.64279V4.99985H0.5V3.57129Z" fill="#5272FF"/>
<path d="M20.4423 7.57564L18.2994 2.57569C18.2444 2.44723 18.1528 2.33775 18.0361 2.26081C17.9195 2.18387 17.7828 2.14285 17.643 2.14284H15.5002V0.714279C15.5002 0.52484 15.4249 0.343161 15.291 0.209208C15.157 0.0752543 14.9753 0 14.7859 0H3.35743V1.42856H14.0716V10.397C13.7463 10.5863 13.4616 10.8379 13.2339 11.1375C13.0062 11.4371 12.8398 11.7787 12.7445 12.1427H8.25595C8.0821 11.4694 7.66865 10.8826 7.0931 10.4923C6.51755 10.102 5.81941 9.93505 5.12955 10.0227C4.43969 10.1103 3.80547 10.4465 3.34577 10.9683C2.88607 11.4901 2.63245 12.1616 2.63245 12.857C2.63245 13.5524 2.88607 14.224 3.34577 14.7457C3.80547 15.2675 4.43969 15.6037 5.12955 15.6914C5.81941 15.779 6.51755 15.612 7.0931 15.2217C7.66865 14.8314 8.0821 14.2446 8.25595 13.5713H12.7445C12.8999 14.1843 13.2552 14.728 13.7543 15.1164C14.2534 15.5048 14.8678 15.7157 15.5002 15.7157C16.1326 15.7157 16.7469 15.5048 17.246 15.1164C17.7451 14.728 18.1005 14.1843 18.2559 13.5713H19.7858C19.9753 13.5713 20.157 13.496 20.2909 13.3621C20.4249 13.2281 20.5001 13.0465 20.5001 12.857V7.85707C20.5001 7.76031 20.4804 7.66457 20.4423 7.57564ZM5.50026 14.2856C5.21772 14.2856 4.94153 14.2018 4.7066 14.0448C4.47168 13.8879 4.28857 13.6647 4.18045 13.4037C4.07232 13.1427 4.04403 12.8554 4.09916 12.5783C4.15428 12.3012 4.29033 12.0467 4.49012 11.8469C4.68991 11.6471 4.94445 11.511 5.22157 11.4559C5.49868 11.4008 5.78591 11.4291 6.04695 11.5372C6.30798 11.6453 6.5311 11.8284 6.68807 12.0634C6.84504 12.2983 6.92882 12.5745 6.92882 12.857C6.92882 13.2359 6.77831 13.5993 6.51041 13.8672C6.2425 14.1351 5.87914 14.2856 5.50026 14.2856ZM15.5002 3.5714H17.1716L18.703 7.14279H15.5002V3.5714ZM15.5002 14.2856C15.2176 14.2856 14.9414 14.2018 14.7065 14.0448C14.4716 13.8879 14.2885 13.6647 14.1804 13.4037C14.0722 13.1427 14.0439 12.8554 14.0991 12.5783C14.1542 12.3012 14.2902 12.0467 14.49 11.8469C14.6898 11.6471 14.9444 11.511 15.2215 11.4559C15.4986 11.4008 15.7858 11.4291 16.0469 11.5372C16.3079 11.6453 16.531 11.8284 16.688 12.0634C16.8449 12.2983 16.9287 12.5745 16.9287 12.857C16.9287 13.2359 16.7782 13.5993 16.5103 13.8672C16.2424 14.1351 15.879 14.2856 15.5002 14.2856ZM19.0716 12.1427H18.2559C18.0985 11.5309 17.7426 10.9886 17.2439 10.6008C16.7452 10.213 16.1319 10.0017 15.5002 9.99991V8.57135H19.0716V12.1427Z" fill="#5272FF"/>
</svg>
