<svg width="25" height="24" viewBox="0 0 25 24" fill="none" xmlns="http://www.w3.org/2000/svg">
<path d="M9.5 18.5H15.5M7.1 2H17.9C18.4601 2 18.7401 2 18.954 2.10899C19.1422 2.20487 19.2951 2.35785 19.391 2.54601C19.5 2.75992 19.5 3.03995 19.5 3.6V5.67452C19.5 6.1637 19.5 6.40829 19.4447 6.63846C19.3957 6.84254 19.3149 7.03763 19.2053 7.21657C19.0816 7.4184 18.9086 7.59135 18.5627 7.93726L15.6314 10.8686C15.2354 11.2646 15.0373 11.4627 14.9632 11.691C14.8979 11.8918 14.8979 12.1082 14.9632 12.309C15.0373 12.5373 15.2354 12.7354 15.6314 13.1314L18.5627 16.0627C18.9086 16.4086 19.0816 16.5816 19.2053 16.7834C19.3149 16.9624 19.3957 17.1575 19.4447 17.3615C19.5 17.5917 19.5 17.8363 19.5 18.3255V20.4C19.5 20.9601 19.5 21.2401 19.391 21.454C19.2951 21.6422 19.1422 21.7951 18.954 21.891C18.7401 22 18.4601 22 17.9 22H7.1C6.53995 22 6.25992 22 6.04601 21.891C5.85785 21.7951 5.70487 21.6422 5.60899 21.454C5.5 21.2401 5.5 20.9601 5.5 20.4V18.3255C5.5 17.8363 5.5 17.5917 5.55526 17.3615C5.60425 17.1575 5.68506 16.9624 5.79472 16.7834C5.9184 16.5816 6.09135 16.4086 6.43726 16.0627L9.36863 13.1314C9.76465 12.7354 9.96265 12.5373 10.0368 12.309C10.1021 12.1082 10.1021 11.8918 10.0368 11.691C9.96266 11.4627 9.76464 11.2646 9.36863 10.8686L6.43726 7.93726C6.09136 7.59136 5.9184 7.4184 5.79472 7.21657C5.68506 7.03763 5.60425 6.84254 5.55526 6.63846C5.5 6.40829 5.5 6.1637 5.5 5.67452V3.6C5.5 3.03995 5.5 2.75992 5.60899 2.54601C5.70487 2.35785 5.85785 2.20487 6.04601 2.10899C6.25992 2 6.53995 2 7.1 2Z" stroke="#5272FF" stroke-width="2" stroke-linecap="round" stroke-linejoin="round"/>
</svg>
