<svg width="61" height="61" viewBox="0 0 61 61" fill="none" xmlns="http://www.w3.org/2000/svg">
<path fill-rule="evenodd" clip-rule="evenodd" d="M0.623535 30.125V45.125C0.623535 53.4093 7.33926 60.125 15.6235 60.125H30.6235H45.6235C53.9078 60.125 60.6235 53.4093 60.6235 45.125V30.125V15.125C60.6235 6.84073 53.9078 0.125 45.6235 0.125H30.6235H15.6235C7.33926 0.125 0.623535 6.84073 0.623535 15.125V30.125Z" fill="#E8FFF0"/>
<path fill-rule="evenodd" clip-rule="evenodd" d="M28.1815 17.4302L32.1276 18.9645L20.3464 23.5455L16.219 21.9406L27.8191 17.4302C27.9402 17.383 28.0603 17.383 28.1815 17.4302ZM40.4692 30.6061C43.7827 30.6061 46.4688 33.2923 46.4688 36.6058C46.4688 39.9193 43.7827 42.6054 40.4692 42.6054C37.1558 42.6054 34.4695 39.9193 34.4695 36.6058C34.4695 33.2923 37.1558 30.6061 40.4692 30.6061ZM42.7409 33.8698L39.1869 37.4238L37.9741 35.8975C37.6758 35.5222 37.1296 35.4599 36.7544 35.7582C36.379 36.0565 36.3166 36.6026 36.615 36.9779L38.3999 39.2239C38.7086 39.666 39.344 39.7265 39.7286 39.3419L43.9708 35.0997C44.3105 34.76 44.3105 34.2094 43.9708 33.8698C43.6311 33.5302 43.0806 33.5302 42.7409 33.8698ZM36.3413 20.603C32.4143 22.1301 28.4873 23.6572 24.5601 25.1839L28.0002 26.5215L39.7815 21.9406L36.3413 20.603ZM40.4692 22.7426L28.5002 27.3965V41.2597L33.944 39.143C33.6379 38.3564 33.4696 37.5009 33.4696 36.6058C33.4696 32.74 36.6034 29.6062 40.4692 29.6062V22.7426ZM27.5002 41.2597V27.3965L23.8726 25.986V28.9134C23.8726 29.0549 23.7072 29.1313 23.5996 29.0395L21.6743 27.3998L19.8738 27.9597C19.849 27.9676 19.8227 27.9694 19.797 27.9652C19.7714 27.9609 19.7471 27.9507 19.7262 27.9353C19.7052 27.9199 19.6882 27.8998 19.6765 27.8765C19.6648 27.8533 19.6588 27.8277 19.6589 27.8017V24.3476L15.5312 22.7427V36.2637C15.5312 36.4741 15.6541 36.6535 15.8503 36.7298L27.5002 41.2597Z" fill="#36C066"/>
</svg>
