<svg width="61" height="61" viewBox="0 0 61 61" fill="none" xmlns="http://www.w3.org/2000/svg">
<path fill-rule="evenodd" clip-rule="evenodd" d="M0.623535 30.125V45.125C0.623535 53.4093 7.33926 60.125 15.6235 60.125H30.6235H45.6235C53.9078 60.125 60.6235 53.4093 60.6235 45.125V30.125V15.125C60.6235 6.84073 53.9078 0.125 45.6235 0.125H30.6235H15.6235C7.33926 0.125 0.623535 6.84073 0.623535 15.125V30.125Z" fill="#DEF5FF"/>
<path d="M24.5029 25.8092L26.0294 26.6343L39.1014 19.5685L36.3531 18.083L23.2807 25.1488L24.5029 25.8092ZM24.2727 30.2445C24.3309 30.2445 24.3883 30.2586 24.44 30.2854C24.4917 30.3122 24.5362 30.3511 24.5698 30.3987L25.6654 31.9518V27.2645L23.5382 26.1147L22.88 25.759V30.6939L24.1563 30.2634C24.1939 30.2508 24.2332 30.2444 24.2727 30.2445ZM39.8662 19.9819L26.7938 27.0478L31 29.3216L44.072 22.2554L39.8662 19.9819ZM22.516 24.7354L35.5883 17.6696L31 15.1892L17.928 22.2554L22.516 24.7354Z" fill="#7599FF"/>
<path d="M30.6363 29.9519L26.3927 27.658V33.0984C26.3926 33.1756 26.368 33.2508 26.3224 33.3131C26.2768 33.3753 26.2125 33.4215 26.1389 33.4448C26.0653 33.4681 25.9862 33.4674 25.9131 33.4428C25.8399 33.4182 25.7765 33.3709 25.732 33.3079L24.132 31.0395L22.6323 31.5449C22.5776 31.5634 22.5193 31.5685 22.4622 31.5599C22.4052 31.5513 22.351 31.5293 22.3041 31.4956C22.2572 31.4619 22.219 31.4175 22.1927 31.3662C22.1664 31.3148 22.1527 31.2579 22.1527 31.2002V25.366L17.5454 22.8755V37.7348L30.6363 44.8111V29.9519ZM21.045 37.9729C20.9992 38.0578 20.9215 38.1209 20.8291 38.1484C20.7367 38.176 20.6371 38.1657 20.5523 38.1199L18.8269 37.1871C18.7848 37.1644 18.7477 37.1336 18.7176 37.0965C18.6875 37.0594 18.6649 37.0168 18.6513 36.971C18.6376 36.9252 18.6332 36.8772 18.6381 36.8297C18.643 36.7821 18.6572 36.7361 18.68 36.694C18.7027 36.652 18.7335 36.6149 18.7706 36.5848C18.8076 36.5546 18.8503 36.5321 18.8961 36.5185C18.9419 36.5048 18.9899 36.5003 19.0374 36.5052C19.0849 36.5102 19.131 36.5244 19.173 36.5471L20.8981 37.4799C20.9402 37.5026 20.9773 37.5333 21.0075 37.5704C21.0376 37.6075 21.0601 37.6502 21.0738 37.696C21.0874 37.7417 21.0919 37.7898 21.087 37.8373C21.0821 37.8848 21.0678 37.9309 21.045 37.9729ZM24.0741 38.37C24.0283 38.4548 23.9506 38.518 23.8582 38.5455C23.7658 38.5731 23.6662 38.5628 23.5814 38.5169L18.8269 35.9471C18.742 35.9012 18.6788 35.8235 18.6513 35.731C18.6376 35.6852 18.6332 35.6372 18.6381 35.5897C18.643 35.5421 18.6572 35.4961 18.68 35.454C18.7027 35.412 18.7335 35.3749 18.7706 35.3448C18.8076 35.3146 18.8503 35.2921 18.8961 35.2785C18.9885 35.2509 19.0882 35.2612 19.173 35.3071L23.9272 37.8769C23.9693 37.8997 24.0064 37.9304 24.0366 37.9675C24.0667 38.0046 24.0892 38.0472 24.1029 38.093C24.1165 38.1388 24.121 38.1869 24.1161 38.2344C24.1111 38.2819 24.0969 38.328 24.0741 38.37ZM31.3636 29.9515V44.8111L44.4545 37.7348V22.8755L31.3636 29.9515Z" fill="#7599FF"/>
</svg>
