<svg width="61" height="61" viewBox="0 0 61 61" fill="none" xmlns="http://www.w3.org/2000/svg">
<path fill-rule="evenodd" clip-rule="evenodd" d="M0.623535 30.125V45.125C0.623535 53.4093 7.33926 60.125 15.6235 60.125H30.6235H45.6235C53.9078 60.125 60.6235 53.4093 60.6235 45.125V30.125V15.125C60.6235 6.84073 53.9078 0.125 45.6235 0.125H30.6235H15.6235C7.33926 0.125 0.623535 6.84073 0.623535 15.125V30.125Z" fill="#FFE9E9"/>
<g clip-path="url(#clip0_3_4966)">
<path d="M27.8 20.8609L25.01 22.4734V14.9729H31.243V22.4734L28.453 20.8609C28.3568 20.8017 28.246 20.7706 28.133 20.7709C28.018 20.7709 27.9025 20.7969 27.8 20.8609ZM41.253 16.4574V28.0159C40.5135 27.8204 39.7519 27.7215 38.987 27.7214C33.867 27.7214 29.6945 31.8944 29.6945 37.0144C29.6945 38.5244 30.0655 39.9584 30.7185 41.2254H16.485C16.0912 41.2251 15.7137 41.0686 15.4352 40.7902C15.1568 40.5117 15.0003 40.1342 15 39.7404V16.4579C15.0003 16.0641 15.1568 15.6866 15.4352 15.4081C15.7137 15.1297 16.0912 14.9732 16.485 14.9729H23.73V22.8709C23.73 23.2549 23.9345 23.6004 24.267 23.7924C24.4263 23.887 24.6086 23.9358 24.7938 23.9335C24.9791 23.9312 25.1601 23.8779 25.317 23.7794L28.133 22.1544L30.936 23.7794H30.949C31.269 23.9714 31.6655 23.9714 31.9985 23.7924C32.1582 23.6973 32.2905 23.5624 32.3825 23.4009C32.4746 23.2394 32.5231 23.0568 32.5235 22.8709V14.9729H39.768C40.1618 14.9732 40.5393 15.1297 40.8178 15.4081C41.0962 15.6866 41.2527 16.0636 41.253 16.4574ZM17.624 35.3249C17.624 35.6829 17.9055 35.9649 18.264 35.9649H21.1055C21.464 35.9649 21.7455 35.6829 21.7455 35.3249C21.7455 34.9789 21.464 34.6849 21.1055 34.6849H18.264C17.9055 34.6849 17.624 34.9789 17.624 35.3249ZM22.987 38.0899C22.987 37.7309 22.7055 37.4499 22.347 37.4499H18.264C17.9055 37.4499 17.624 37.7309 17.624 38.0899C17.624 38.4349 17.9055 38.7299 18.264 38.7299H22.347C22.7055 38.7299 22.987 38.4349 22.987 38.0899ZM47 37.0139C47 41.4424 43.416 45.0264 38.987 45.0264C34.571 45.0264 30.9745 41.4424 30.9745 37.0139C30.9745 32.5979 34.571 29.0009 38.987 29.0009C43.416 29.0014 47 32.5984 47 37.0149V37.0139ZM39.896 37.0139L42.571 34.3514C42.6882 34.2291 42.7536 34.0663 42.7536 33.8969C42.7536 33.7275 42.6882 33.5647 42.571 33.4424C42.315 33.1994 41.906 33.1994 41.6625 33.4424L38.9875 36.1174L36.325 33.4424C36.2027 33.3252 36.0399 33.2598 35.8705 33.2598C35.7011 33.2598 35.5383 33.3252 35.416 33.4424C35.2988 33.5647 35.2334 33.7275 35.2334 33.8969C35.2334 34.0663 35.2988 34.2291 35.416 34.3514L38.091 37.0139L35.416 39.6889C35.173 39.9324 35.173 40.3419 35.416 40.5979C35.544 40.7129 35.7105 40.7769 35.877 40.7769C36.0305 40.7769 36.197 40.7129 36.325 40.5979L38.987 37.9229L41.662 40.5979C41.7905 40.7129 41.957 40.7769 42.1105 40.7769C42.277 40.7769 42.443 40.7129 42.571 40.5979C42.8145 40.3419 42.8145 39.9324 42.571 39.6889L39.896 37.0139Z" fill="#FF5652"/>
</g>
<defs>
<clipPath id="clip0_3_4966">
<rect width="32" height="32" fill="white" transform="translate(15 14)"/>
</clipPath>
</defs>
</svg>
