<svg width="103" height="103" viewBox="0 0 103 103" fill="none" xmlns="http://www.w3.org/2000/svg">
<path d="M26.8074 70.3697C22.7423 65.3707 18.8695 61.1683 17.3039 55.7574C16.2602 52.1593 17.2215 47.2427 18.842 43.9467C20.4626 40.5683 21.4514 39.4422 23.7586 36.5033C25.434 34.3883 28.6751 30.8726 30.5703 29.0598C33.317 26.3955 35.5692 24.6926 38.6455 22.3854C42.5732 19.3366 45.4572 18.1281 49.3026 17.5787C52.7359 17.0019 56.334 17.3041 59.4378 19.0619C68.9412 24.5553 75.753 32.3558 80.7244 38.9478C83.6084 42.7382 85.998 47.1054 86.053 51.8846C86.1354 55.4003 84.7071 58.2843 82.8119 61.3057C78.3074 68.3371 70.7815 75.9179 62.6239 82.1803C56.4439 86.8771 48.149 87.811 41.1175 82.7297C34.2783 77.8131 33.2895 76.9067 26.8074 70.3697Z" fill="#5272FF"/>
<path d="M30.6253 51.6375H22.1655V51.8572H30.6253V51.6375Z" fill="#F0F1F4"/>
<path d="M38.4258 30.9001L37.437 30.5155L37.5194 30.3507L41.969 30.0486L41.8317 30.3233L42.1338 30.7078L41.3098 31.0648L42.0239 31.3121L41.9965 31.4219L39.7167 31.6966V34.2235L41.3373 34.1411L41.1999 34.4433L41.5295 34.7454L41.3098 35.2123L41.4197 35.3771L39.7167 35.6518L39.8266 39.1401L39.5794 39.2225L39.1674 38.3161L38.8927 39.2225L38.5357 38.9752L38.2335 39.1126L38.1237 31.8339H37.8215L37.9314 31.3945L37.7666 31.3121L38.4258 30.9001Z" fill="#F0F1F4"/>
<path d="M43.8093 39.2225L43.4797 39.1126L43.5072 30.2958L43.8093 30.3507L44.1664 30.0761L44.6333 31.2571L45.1277 29.9387L45.3749 29.9662L45.2651 39.0027L44.8531 38.783L44.5235 39.195L44.1939 38.2886L43.8093 39.2225Z" fill="#F0F1F4"/>
<path d="M46.8031 33.6466C46.7756 33.5367 46.7756 33.4269 46.7756 33.317C46.7756 33.1797 46.8031 33.0149 46.8306 32.8775C46.8855 32.6029 46.9954 32.3282 47.1327 32.0261C47.27 31.7514 47.4898 31.4767 47.7919 31.2295C48.094 30.9823 48.4511 30.7626 48.8356 30.5703C49.2202 30.3781 49.6322 30.2133 50.0716 30.0759C50.5111 29.9386 50.9231 29.8562 51.3076 29.8013L51.1428 30.1858L51.6098 30.3506L50.8956 30.9274L51.857 31.1746L51.7746 31.5591C51.4999 31.6141 51.1978 31.669 50.8956 31.7514C50.566 31.8338 50.2639 31.9437 49.9892 32.0535C49.6871 32.1634 49.4399 32.3282 49.2476 32.493C49.0279 32.6578 48.918 32.8501 48.8631 33.0698C48.8631 33.1247 48.8631 33.1797 48.8631 33.2071C48.8631 33.3994 48.918 33.5367 49.0554 33.7015C49.2202 33.8663 49.4124 34.0311 49.6322 34.141C49.8519 34.2509 50.0991 34.3607 50.3463 34.4706C50.5935 34.553 50.8132 34.6354 50.9506 34.7178C51.1154 34.8002 51.2802 34.9101 51.445 35.0474C51.6098 35.1847 51.7196 35.3221 51.802 35.5143C51.9119 35.6791 51.9668 35.8989 51.9943 36.1461C51.9943 36.201 51.9943 36.2834 51.9943 36.3658C51.9943 36.5581 51.9668 36.7503 51.9119 36.9975C51.8295 37.3821 51.6372 37.7391 51.3351 38.0413C51.033 38.3434 50.6759 38.5906 50.2639 38.8103C49.8519 39.0026 49.4124 39.1399 48.918 39.2223C48.4511 39.3047 47.9842 39.3322 47.5447 39.3597L47.4348 39.2498L48.0666 38.7005L47.3799 38.5082L47.5996 38.3159C47.5722 38.261 47.5722 38.2335 47.5447 38.1786C47.5172 38.1511 47.5172 38.0962 47.4898 38.0687C47.4623 38.0413 47.4348 37.9863 47.4074 37.9314C47.682 37.9039 47.9842 37.849 48.3138 37.7941C48.6708 37.7391 48.973 37.6293 49.2476 37.5469C49.3575 37.4919 49.4948 37.437 49.6322 37.3546C49.7695 37.2722 49.8794 37.1623 49.9618 37.025C50.0167 36.9426 50.0442 36.8327 50.0442 36.7503C50.0442 36.6954 50.0442 36.6679 50.0167 36.613C49.9892 36.4482 49.8519 36.2834 49.6322 36.0911C49.4674 35.9538 49.33 35.8439 49.1652 35.7615C49.0004 35.6791 48.8631 35.5967 48.6983 35.5143C48.5335 35.4319 48.3962 35.377 48.2314 35.2946C48.0666 35.2122 47.9018 35.1298 47.737 35.0474C47.4348 34.8826 47.1876 34.6903 47.0228 34.4706C46.9679 34.1135 46.858 33.8938 46.8031 33.6466Z" fill="#F0F1F4"/>
<path d="M53.3953 39.2223L53.2305 39.1674L53.3953 30.1858L53.5875 30.2407L53.8073 30.1034L54.2193 30.9823L54.7137 30.0759L54.9883 30.1034L54.9609 33.4818L57.5427 33.4269L57.5977 30.021L57.8723 29.9661L58.2019 30.7901L58.6963 29.9935L59.0259 30.2407L59.2182 30.1583L59.0259 39.1125L58.7513 39.3047L58.5041 38.2061L58.1745 39.1674L57.7625 38.9202L57.5702 39.0026L57.5977 35.5693L54.8785 35.7066L54.7411 38.9477L54.439 38.8927L54.1369 39.2223L53.7798 38.4258L53.3953 39.2223Z" fill="#F0F1F4"/>
<path d="M62.1296 34.663C62.1296 34.7179 62.1296 34.8003 62.1296 34.8553C62.1296 35.2673 62.157 35.6518 62.212 36.0638C62.2944 36.5307 62.4317 36.9153 62.624 37.2174C62.6789 37.2998 62.7888 37.3822 62.9261 37.4646C63.0634 37.5195 63.2282 37.5745 63.4205 37.5745C63.448 37.5745 63.448 37.5745 63.4754 37.5745C63.6402 37.5745 63.7776 37.547 63.9424 37.4921C64.1072 37.4097 64.2445 37.2998 64.3269 37.1075C64.5192 36.723 64.6565 36.3384 64.7389 35.899C64.7938 35.5144 64.8213 35.1574 64.8213 34.7729C64.8213 34.7179 64.8213 34.663 64.8213 34.6081C64.8213 34.1961 64.7664 33.8115 64.684 33.4545C64.6016 33.0974 64.5192 32.8227 64.4368 32.603C64.3269 32.3283 64.1621 32.1635 63.9973 32.0811C63.86 31.9987 63.6952 31.9713 63.5304 31.9713C63.5029 31.9713 63.448 31.9713 63.4205 31.9713C63.2282 31.9987 63.036 32.0536 62.8712 32.191C62.7064 32.3008 62.569 32.4382 62.4866 32.5755C62.3768 32.7403 62.2944 33.0424 62.2394 33.427C62.1845 33.7566 62.1296 34.196 62.1296 34.663ZM60.509 34.5531C60.509 34.1961 60.5365 33.8664 60.564 33.5643C60.5914 33.2622 60.6464 33.015 60.6738 32.8227C60.7837 32.3283 60.921 31.9163 61.1133 31.5867C61.3056 31.2571 61.4978 30.9825 61.745 30.7627C61.9922 30.543 62.2394 30.3782 62.5416 30.2683C62.8437 30.1584 63.1458 30.0761 63.4754 30.0486C63.5304 30.0486 63.5853 30.0486 63.6402 30.0486C63.6677 30.0486 63.6952 30.0486 63.7226 30.0486C63.8325 30.0486 63.9149 30.0486 63.9973 30.0761L64.1346 30.9001L64.8213 30.6254L64.9861 31.4219L65.7002 31.2296C65.865 31.4219 65.9749 31.6417 66.0848 31.8339C66.1946 32.0537 66.2496 32.2734 66.3045 32.5481C66.3594 33.1249 66.4144 33.7291 66.4144 34.3059C66.4144 34.3883 66.4144 34.4707 66.4144 34.5531C66.4144 35.0475 66.3869 35.5419 66.332 35.9814C66.277 36.5033 66.1397 36.9976 65.9749 37.4096C65.8101 37.8491 65.5904 38.1787 65.3157 38.4534C65.0136 38.7281 64.684 38.9203 64.2994 39.0302C63.9424 39.1401 63.6128 39.1675 63.2832 39.1675C63.2557 39.1675 63.2282 39.1675 63.1733 39.1675C62.8162 39.1675 62.4592 39.1126 62.157 39.0027C61.8274 38.8928 61.6077 38.7555 61.4704 38.6182C61.2781 38.4259 61.1133 38.1513 60.976 37.8491C60.8386 37.547 60.7562 37.1899 60.6738 36.8329C60.5914 36.4758 60.564 36.0912 60.5365 35.6792C60.509 35.3771 60.509 35.1025 60.509 34.8278C60.509 34.7179 60.509 34.6355 60.509 34.5531Z" fill="#F0F1F4"/>
<path d="M31.5318 69.628V68.5842H31.8065V71.0288H31.5318V69.8752H30.1035V71.0288H29.8289V68.5842H30.1035V69.628H31.5318Z" fill="#F0F1F4"/>
<path d="M34.8277 69.8203C34.8277 70.2049 34.6904 70.507 34.4432 70.7267C34.196 70.9739 33.8939 71.0838 33.5093 71.0838C33.1248 71.0838 32.8227 70.9739 32.5755 70.7267C32.3283 70.4795 32.1909 70.1774 32.1909 69.8203C32.1909 69.4358 32.3283 69.1337 32.5755 68.9139C32.8227 68.6667 33.1248 68.5569 33.5093 68.5569C33.8939 68.5569 34.196 68.6667 34.4432 68.9139C34.6904 69.1337 34.8277 69.4358 34.8277 69.8203ZM32.7952 69.0513C32.6029 69.2435 32.4931 69.4908 32.4931 69.7929C32.4931 70.095 32.6029 70.3422 32.7952 70.5345C32.9875 70.7267 33.2347 70.8091 33.5093 70.8091C33.784 70.8091 34.0312 70.7267 34.2235 70.5345C34.4157 70.3422 34.5256 70.095 34.5256 69.7929C34.5256 69.4908 34.4157 69.2435 34.2235 69.0513C34.0312 68.859 33.784 68.7766 33.5093 68.7766C33.2347 68.7766 32.9875 68.8865 32.7952 69.0513Z" fill="#F0F1F4"/>
<path d="M37.7118 69.8203C37.7118 70.2049 37.5744 70.507 37.3272 70.7267C37.08 70.9739 36.7779 71.0838 36.3934 71.0838C36.0088 71.0838 35.7067 70.9739 35.4595 70.7267C35.2123 70.4795 35.075 70.1774 35.075 69.8203C35.075 69.4358 35.2123 69.1337 35.4595 68.9139C35.7067 68.6667 36.0088 68.5569 36.3934 68.5569C36.7779 68.5569 37.08 68.6667 37.3272 68.9139C37.6019 69.1337 37.7118 69.4358 37.7118 69.8203ZM35.7067 69.0513C35.5144 69.2435 35.4046 69.4908 35.4046 69.7929C35.4046 70.095 35.5144 70.3422 35.7067 70.5345C35.899 70.7267 36.1462 70.8091 36.4208 70.8091C36.6955 70.8091 36.9427 70.7267 37.135 70.5345C37.3272 70.3422 37.4371 70.095 37.4371 69.7929C37.4371 69.4908 37.3272 69.2435 37.135 69.0513C36.9427 68.859 36.6955 68.7766 36.4208 68.7766C36.1462 68.7766 35.899 68.8865 35.7067 69.0513Z" fill="#F0F1F4"/>
<path d="M38.1238 71.0288V68.5842H38.3984V69.9576L39.6894 68.5842H40.0464L39.0851 69.6005L40.1838 71.0288H39.8267L38.8928 69.7653L38.3984 70.2597V71.0288H38.1238Z" fill="#F0F1F4"/>
<path d="M42.079 71.0288H40.5134V68.5842H42.0241V68.8314H40.7881V69.628H41.9142V69.8752H40.7881V70.7816H42.079V71.0288Z" fill="#F0F1F4"/>
<path d="M43.3974 68.8314H42.7931V70.7816H43.315C43.6446 70.7816 43.9192 70.6992 44.1115 70.5344C44.3038 70.3696 44.4136 70.1224 44.4136 69.7928C44.4136 69.161 44.084 68.8314 43.3974 68.8314ZM42.491 71.0288V68.5842H43.3699C43.7819 68.5842 44.1115 68.6941 44.3312 68.8864C44.551 69.1061 44.6608 69.3808 44.6608 69.7653C44.6608 70.1498 44.5235 70.452 44.2763 70.6717C44.0291 70.8914 43.6995 71.0013 43.26 71.0013H42.491V71.0288Z" fill="#F0F1F4"/>
<path d="M48.7259 69.8203C48.7259 70.2049 48.5886 70.507 48.3414 70.7267C48.0942 70.9739 47.792 71.0838 47.4075 71.0838C47.023 71.0838 46.7208 70.9739 46.4736 70.7267C46.2264 70.4795 46.0891 70.1774 46.0891 69.8203C46.0891 69.4358 46.2264 69.1337 46.4736 68.9139C46.7208 68.6667 47.023 68.5569 47.4075 68.5569C47.792 68.5569 48.0942 68.6667 48.3414 68.9139C48.5886 69.1337 48.7259 69.4358 48.7259 69.8203ZM46.6934 69.0513C46.5011 69.2435 46.3912 69.4908 46.3912 69.7929C46.3912 70.095 46.5011 70.3422 46.6934 70.5345C46.8856 70.7267 47.1328 70.8091 47.4075 70.8091C47.6822 70.8091 47.9294 70.7267 48.1216 70.5345C48.3139 70.3422 48.4238 70.095 48.4238 69.7929C48.4238 69.4908 48.3139 69.2435 48.1216 69.0513C47.9294 68.859 47.6822 68.7766 47.4075 68.7766C47.1328 68.7766 46.8856 68.8865 46.6934 69.0513Z" fill="#F0F1F4"/>
<path d="M49.1104 71.0288V68.5842H49.4125L51.1154 70.6992L51.088 69.9576V68.5842H51.3626V71.0288H51.033L49.3575 68.9138L49.385 69.7653V71.0288H49.1104Z" fill="#F0F1F4"/>
<path d="M52.9558 71.0288V68.5842H54.4665V68.8314H53.2305V69.6554H54.3566V69.9026H53.2305V71.0288H52.9558Z" fill="#F0F1F4"/>
<path d="M55.7848 68.8314H55.1805V69.7104H55.8123C56.0045 69.7104 56.1419 69.6829 56.2518 69.6005C56.3616 69.5181 56.4165 69.4082 56.4165 69.2709C56.3891 68.9688 56.1968 68.8314 55.7848 68.8314ZM54.8784 71.0288V68.5842H55.8398C56.087 68.5842 56.2792 68.6392 56.444 68.7765C56.6088 68.8864 56.6638 69.0512 56.6638 69.2709C56.6638 69.4082 56.6088 69.5456 56.5264 69.6554C56.4166 69.7653 56.2792 69.8477 56.1144 69.9026L56.856 71.0288H56.5264L55.8398 69.9576H55.1805V71.0288H54.8784Z" fill="#F0F1F4"/>
<path d="M58.7787 71.0288H57.2131V68.5842H58.7238V68.8314H57.4878V69.628H58.6139V69.8752H57.4878V70.7816H58.7787V71.0288Z" fill="#F0F1F4"/>
<path d="M60.7562 68.7492L60.6463 68.9689C60.454 68.859 60.2343 68.7766 60.0146 68.7766C59.8498 68.7766 59.7124 68.8041 59.63 68.8865C59.5476 68.9689 59.4927 69.0513 59.4927 69.1612C59.4927 69.271 59.5202 69.3534 59.6026 69.4084C59.6575 69.4633 59.7674 69.5182 59.9322 69.5457L60.2892 69.6281C60.7287 69.7105 60.921 69.9577 60.921 70.3422C60.921 70.562 60.8386 70.7268 60.6738 70.8641C60.509 71.0014 60.2892 71.0838 59.9871 71.0838C59.8223 71.0838 59.6575 71.0564 59.5476 71.0289C59.4103 71.0014 59.3004 70.9465 59.1631 70.8641L59.273 70.6169C59.5202 70.7542 59.7674 70.8366 60.0146 70.8366C60.2343 70.8366 60.4266 70.7817 60.509 70.6993C60.6188 70.6169 60.6738 70.507 60.6738 70.3697C60.6738 70.2324 60.6463 70.1225 60.5639 70.0401C60.4815 69.9577 60.3716 69.9028 60.1794 69.8753L59.7948 69.7929C59.63 69.7654 59.4927 69.683 59.4103 69.5732C59.3004 69.4633 59.273 69.326 59.273 69.1612C59.273 68.9689 59.3554 68.8041 59.4927 68.6942C59.63 68.5844 59.8223 68.502 60.0695 68.502C60.2892 68.5294 60.5364 68.6118 60.7562 68.7492Z" fill="#F0F1F4"/>
<path d="M63.0086 69.628V68.5842H63.2833V71.0288H63.0086V69.8752H61.5803V71.0288H61.3057V68.5842H61.5803V69.628H63.0086Z" fill="#F0F1F4"/>
<path d="M63.7776 71.0288V68.5842H64.0797L65.7552 70.6992V69.9576V68.5842H66.0299V71.0288H65.7003L64.0248 68.9138L64.0523 69.7653V71.0288H63.7776Z" fill="#F0F1F4"/>
<path d="M68.0899 71.0288H66.4968V68.5842H68.035V68.8314H66.799V69.628H67.8976V69.8752H66.799V70.7816H68.0899V71.0288Z" fill="#F0F1F4"/>
<path d="M70.0401 68.7492L69.9302 68.9689C69.738 68.859 69.5182 68.7766 69.2985 68.7766C69.1337 68.7766 68.9964 68.8041 68.914 68.8865C68.8316 68.9689 68.7766 69.0513 68.7766 69.1612C68.7766 69.271 68.8041 69.3534 68.8865 69.4084C68.9414 69.4633 69.0513 69.5182 69.2161 69.5457L69.5732 69.6281C70.0126 69.7105 70.2049 69.9577 70.2049 70.3422C70.2049 70.562 70.1225 70.7268 69.9577 70.8641C69.7929 71.0014 69.5732 71.0838 69.271 71.0838C69.1062 71.0838 68.9414 71.0564 68.8316 71.0289C68.6942 71.0014 68.5844 70.9465 68.447 70.8641L68.5569 70.6169C68.8041 70.7542 69.0513 70.8366 69.2985 70.8366C69.5182 70.8366 69.683 70.7817 69.7929 70.6993C69.9028 70.6169 69.9577 70.507 69.9577 70.3697C69.9577 70.2324 69.9302 70.1225 69.8478 70.0401C69.7654 69.9577 69.6556 69.9028 69.4633 69.8753L69.0788 69.7929C68.914 69.7654 68.8041 69.683 68.6942 69.5732C68.5844 69.4633 68.5569 69.326 68.5569 69.1612C68.5569 68.9689 68.6118 68.8041 68.7766 68.6942C68.914 68.5844 69.1062 68.502 69.3534 68.502C69.5732 68.5294 69.8478 68.6118 70.0401 68.7492Z" fill="#F0F1F4"/>
<path d="M72.1275 68.7492L72.0176 68.9689C71.8254 68.859 71.6056 68.7766 71.3859 68.7766C71.2211 68.7766 71.0838 68.8041 71.0014 68.8865C70.919 68.9689 70.864 69.0513 70.864 69.1612C70.864 69.271 70.8915 69.3534 70.9739 69.4084C71.0288 69.4633 71.1387 69.5182 71.3035 69.5457L71.6606 69.6281C72.1 69.7105 72.2923 69.9577 72.2923 70.3422C72.2923 70.562 72.2099 70.7268 72.0451 70.8641C71.8803 71.0014 71.6606 71.0838 71.3584 71.0838C71.1936 71.0838 71.0288 71.0564 70.919 71.0289C70.8091 71.0014 70.6718 70.9465 70.5344 70.8641L70.6443 70.6169C70.8915 70.7542 71.1387 70.8366 71.3859 70.8366C71.6056 70.8366 71.7704 70.7817 71.8803 70.6993C71.9902 70.6169 72.0451 70.507 72.0451 70.3697C72.0451 70.2324 72.0176 70.1225 71.9352 70.0401C71.8528 69.9577 71.743 69.9028 71.5507 69.8753L71.1662 69.7929C71.0014 69.7654 70.864 69.683 70.7816 69.5732C70.6718 69.4633 70.6443 69.326 70.6443 69.1612C70.6443 68.9689 70.7267 68.8041 70.864 68.6942C71.0014 68.5844 71.1936 68.502 71.4408 68.502C71.6606 68.5294 71.9078 68.6118 72.1275 68.7492Z" fill="#F0F1F4"/>
<path d="M72.6768 70.6992C72.7042 70.6717 72.7592 70.6443 72.8416 70.6443C72.8965 70.6443 72.9514 70.6717 73.0064 70.6992C73.0338 70.7267 73.0613 70.7816 73.0613 70.864C73.0613 70.919 73.0338 70.9739 73.0064 71.0288C72.9789 71.0563 72.924 71.0837 72.8416 71.0837C72.7866 71.0837 72.7317 71.0563 72.6768 71.0288C72.6493 71.0014 72.6218 70.9464 72.6218 70.864C72.6218 70.7816 72.6493 70.7267 72.6768 70.6992Z" fill="#F0F1F4"/>
<path d="M37.2448 72.2098H36.6405V74.16H37.1624C37.492 74.16 37.7666 74.0776 37.9589 73.9128C38.1512 73.748 38.261 73.5008 38.261 73.1712C38.261 72.5394 37.9314 72.2098 37.2448 72.2098ZM36.3384 74.4072V71.9626H37.2173C37.6293 71.9626 37.9589 72.0725 38.1786 72.2648C38.3984 72.4845 38.5357 72.7592 38.5357 73.1437C38.5357 73.5282 38.3984 73.8304 38.1512 74.0501C37.904 74.2698 37.5744 74.3797 37.1349 74.3797H36.3384V74.4072Z" fill="#F0F1F4"/>
<path d="M40.5408 74.4073H38.9478V71.9902H40.4859V72.21H39.2224V73.034H40.3486V73.2812H39.2224V74.1876H40.5408V74.4073Z" fill="#F0F1F4"/>
<path d="M41.2275 71.9902V74.1876H42.4086V74.4073H40.9529V71.9902H41.2275Z" fill="#F0F1F4"/>
<path d="M43.0952 71.9902H42.8206V74.4348H43.0952V71.9902Z" fill="#F0F1F4"/>
<path d="M45.7869 71.9902L44.7981 74.4073H44.4136L43.4248 71.9902H43.7269L44.5784 74.1601H44.6608L45.4848 71.9902H45.7869Z" fill="#F0F1F4"/>
<path d="M47.6821 74.4073H46.1165V71.9902H47.6271V72.21H46.3911V73.034H47.5173V73.2812H46.3911V74.1876H47.6821V74.4073Z" fill="#F0F1F4"/>
<path d="M49.0006 72.2098H48.3964V73.0888H49.0281C49.2204 73.0888 49.3577 73.0613 49.4676 72.9789C49.5774 72.8965 49.6324 72.7866 49.6324 72.6493C49.6049 72.3746 49.4126 72.2098 49.0006 72.2098ZM48.0942 74.4072V71.9626H49.0556C49.3028 71.9626 49.495 72.0176 49.6598 72.1549C49.8246 72.2648 49.8796 72.4296 49.8796 72.6493C49.8796 72.7866 49.8246 72.924 49.7422 73.0338C49.6324 73.1437 49.495 73.2261 49.3302 73.281L50.0718 74.4072H49.7148L49.0281 73.336H48.3689V74.4072H48.0942Z" fill="#F0F1F4"/>
<path d="M51.9943 74.4073H50.4287V71.9902H51.9394V72.21H50.7034V73.034H51.8295V73.2812H50.7034V74.1876H51.9943V74.4073Z" fill="#F0F1F4"/>
<path d="M53.3129 72.2098H52.7086V74.16H53.2305C53.5601 74.16 53.8348 74.0776 54.027 73.9128C54.2193 73.748 54.3292 73.5008 54.3292 73.1712C54.3292 72.5394 53.9996 72.2098 53.3129 72.2098ZM52.4065 74.4072V71.9626H53.2854C53.6974 71.9626 54.027 72.0725 54.2468 72.2648C54.4665 72.4845 54.6038 72.7592 54.6038 73.1437C54.6038 73.5282 54.4665 73.8304 54.2193 74.0501C53.9721 74.2698 53.615 74.3797 53.203 74.3797H52.4065V74.4072Z" fill="#F0F1F4"/>
<path d="M56.9934 72.2098H56.3892V74.16H56.911C57.2406 74.16 57.5153 74.0776 57.7076 73.9128C57.8998 73.748 58.0097 73.5008 58.0097 73.1712C58.0372 72.5394 57.6801 72.2098 56.9934 72.2098ZM56.1145 74.4072V71.9626H56.9934C57.4054 71.9626 57.735 72.0725 57.9548 72.2648C58.1745 72.4845 58.3118 72.7592 58.3118 73.1437C58.3118 73.5282 58.1745 73.8304 57.9273 74.0501C57.6801 74.2698 57.323 74.3797 56.911 74.3797H56.1145V74.4072Z" fill="#F0F1F4"/>
<path d="M59.685 72.2648H59.63L59.1631 73.3634H60.1244L59.685 72.2648ZM58.449 74.4072L59.4927 71.9626H59.8223L60.866 74.4072H60.5639L60.2068 73.5832H59.0532L58.7236 74.4072H58.449Z" fill="#F0F1F4"/>
<path d="M61.4978 71.9902H61.2231V74.4348H61.4978V71.9902Z" fill="#F0F1F4"/>
<path d="M62.2669 71.9902V74.1876H63.4479V74.4073H61.9922V71.9902H62.2669Z" fill="#F0F1F4"/>
<path d="M64.3271 73.4734L63.3657 71.9902H63.6953L64.4369 73.1988H64.4644L65.2335 71.9902H65.5356L64.6017 73.4734V74.4073H64.3271V73.4734Z" fill="#F0F1F4"/>
<path d="M54.2742 59.6577L54.3292 59.5753C54.0545 59.2182 53.7249 58.8886 53.3953 58.5865C52.9284 58.2294 52.4065 57.8174 51.8572 57.7076C51.3078 57.5977 50.7585 57.8449 50.1268 57.9548C51.3902 58.7788 52.791 59.3556 54.2742 59.6577ZM46.3638 57.8998C47.1604 58.7513 48.6985 59.8225 50.4014 59.9598C50.0169 59.3556 49.6873 58.7788 49.3302 58.2294C49.2204 58.0372 49.0006 57.9273 48.8084 57.9822C48.5062 58.0097 48.2041 58.0372 47.8745 58.0372C47.4076 58.0097 46.9132 57.9548 46.3638 57.8998ZM55.0433 44.606C53.9172 44.7708 52.846 44.9356 51.7748 45.0454C50.8409 45.1278 49.9345 45.2926 49.0556 45.5948C48.2316 45.8969 47.4625 46.2265 46.8857 46.9681C49.9345 45.9793 52.8734 45.8145 55.5377 47.847L56.0596 47.2153C55.675 47.1054 55.3454 46.9956 54.9884 46.9132C54.7961 46.8582 54.5489 46.8308 54.5489 46.5836C54.5489 46.4188 54.7412 46.254 54.851 46.1166C54.9884 46.0068 55.1257 45.9244 55.2905 45.842C54.9609 45.842 54.7412 45.8145 54.5214 45.842C54.3017 45.8694 54.082 45.7596 54.027 45.5398C53.9996 45.4025 54.1369 45.2102 54.2742 45.1278C54.5214 44.963 54.7686 44.7708 55.0433 44.606ZM40.5134 53.615C40.3486 53.7798 40.5134 54.0545 40.6782 54.2193C40.7881 54.3292 41.0078 54.3292 41.1726 54.3841C41.31 54.4116 41.4473 54.4665 41.5572 54.5489C41.8044 54.851 42.0516 55.1257 42.2988 55.3729C44.5236 57.1308 47.078 57.7625 49.8796 57.378C50.786 57.2681 51.6924 57.1308 52.5713 56.9385C54.6038 56.5814 56.554 55.8398 58.3118 54.7686C58.5316 54.6038 58.8337 54.6313 58.971 54.8785C59.383 55.4553 59.8774 55.9772 60.0972 56.6913C60.3169 57.4054 60.5366 58.0646 60.7564 58.7513C61.1958 58.202 61.5804 57.5977 61.6078 56.8012C61.6353 55.8673 61.2782 55.0708 60.7838 54.3292C60.6465 54.1369 60.4817 53.8622 60.7289 53.7249C61.2782 53.3678 61.7452 52.8734 62.0473 52.2692C62.9812 50.7585 63.091 49.2204 62.2121 47.6548C62.1022 47.435 61.9374 47.2428 61.8001 47.023C61.5804 49.4401 60.4268 51.0057 58.1196 51.8022C58.0646 51.7473 58.0372 51.6924 58.0097 51.6374C57.9548 51.5825 57.9273 51.5001 57.8998 51.4452C56.966 49.5225 55.3729 48.0118 53.3953 47.1878C52.1318 46.666 50.7585 46.5286 49.4126 46.7758C48.6161 46.9132 47.8196 47.1329 47.0505 47.4076C44.7158 48.2316 42.6833 49.5225 41.2825 51.61C41.2001 51.7473 40.9254 51.7748 40.7332 51.8297C40.6508 51.8572 40.5134 51.8297 40.4585 51.8572C40.1564 52.1044 40.2937 52.434 40.3761 52.7086C40.486 52.8734 40.6508 52.9833 40.843 53.0108C41.0078 53.0382 41.2001 52.9009 41.3649 52.8734C41.4748 52.846 41.667 52.846 41.722 52.9284C41.8318 53.0932 41.722 53.258 41.5572 53.3129C41.2825 53.4502 40.9529 53.5326 40.5134 53.615ZM63.3382 50.319C63.2284 50.7585 63.1185 51.198 62.9537 51.6374C62.5692 52.5713 61.9924 53.3953 61.2233 54.0545C62.679 56.1694 62.4593 58.147 60.4268 59.8774C60.2894 59.85 60.1246 59.7676 60.1521 59.4105C60.207 59.026 60.1796 58.6414 60.0972 58.2844C59.8225 57.1857 59.4654 56.1145 58.5865 55.2905C56.8012 56.3892 54.8236 57.0484 52.6812 57.5153C52.9284 57.6526 53.0657 57.735 53.2305 57.8174C53.9446 58.2569 54.439 58.8886 54.8785 59.5478C55.0982 59.8774 54.9334 60.1796 54.5489 60.1521C54.1369 60.1246 53.7249 60.0422 53.3129 59.9049C52.2692 59.5478 51.2529 59.1358 50.2641 58.7513C50.4289 59.0809 50.6486 59.4929 50.8684 59.9049C51.0057 60.0972 50.9233 60.3444 50.7036 60.4268C50.6212 60.4542 50.5113 60.4817 50.4014 60.4542C48.9182 60.262 47.5449 59.6028 46.4188 58.5865C46.3089 58.5041 46.199 58.3942 46.0892 58.2844C45.9244 57.9548 45.6222 57.7076 45.2652 57.5977C44.0566 57.2132 42.9305 56.6089 41.9142 55.8124C41.8318 55.7574 41.7494 55.7025 41.6945 55.6201C41.4748 55.2081 41.0902 54.906 40.6233 54.8236C40.0465 54.7412 39.8817 53.9172 40.2113 53.3678C39.8817 52.9558 39.7993 52.4065 39.9916 51.9121C40.1564 51.4726 40.5134 51.3628 40.9529 51.5276C42.0516 49.6324 43.782 48.5062 45.6497 47.5724C46.0342 47.4076 46.3638 47.1329 46.5836 46.7758C46.9956 46.0892 47.6822 45.7321 48.3964 45.4025C49.4401 44.9905 50.5113 44.7158 51.6374 44.606C53.1206 44.4137 54.5764 44.1665 56.0596 43.9468C56.1969 43.9468 56.3068 44.0017 56.4441 44.0566C56.3892 44.194 56.3617 44.3862 56.2518 44.4412C55.8124 44.7433 55.318 45.018 54.7961 45.3476C55.0982 45.375 55.3729 45.4025 55.675 45.4849C55.8124 45.5398 55.9222 45.6222 55.9772 45.7596C55.9772 45.8969 55.8948 46.0342 55.7849 46.1166C55.6201 46.254 55.4278 46.3638 55.2356 46.4462C55.4828 46.5286 55.73 46.5836 55.9497 46.6934C56.1694 46.7758 56.4441 46.8857 56.4716 47.2153C56.499 47.5449 56.2518 47.7372 56.0321 47.902C55.9772 47.9569 55.8948 48.0118 55.8124 48.0668C56.911 48.9457 57.79 50.0718 58.3942 51.3353C58.9436 51.1705 59.4105 50.8684 59.8225 50.4564C60.4817 49.7972 61.031 49.0281 61.2508 48.1217C61.3057 47.7372 61.3332 47.3252 61.3057 46.9406C61.3057 46.7484 61.2782 46.5286 61.5254 46.5012C61.6902 46.5012 61.855 46.5561 61.9649 46.666C62.5692 47.1054 62.7889 47.7646 63.0361 48.3964C63.146 48.7809 63.2284 49.1654 63.3108 49.55V50.319H63.3382Z" fill="#F0F1F4"/>
<path d="M53.0107 54.6037C53.0931 54.5763 53.1755 54.5213 53.2579 54.4664C53.6699 54.3016 54.0819 54.1368 54.4939 53.9445C54.8235 53.7797 54.851 53.6424 54.5214 53.4227C54.3291 53.2853 54.0819 53.2029 53.8897 53.0656C53.7798 52.9557 53.6699 52.8184 53.5875 52.6811C53.6974 52.5987 53.8073 52.5163 53.9446 52.4613C54.2742 52.324 54.6038 52.2142 54.9883 52.0768C54.5489 51.6099 53.9171 51.3352 53.2579 51.3352V51.1704C53.3678 51.1155 53.4777 51.0605 53.615 51.0605C54.2193 51.088 54.7686 51.3352 55.1806 51.7747C55.3729 51.912 55.3729 52.2142 55.1806 52.3515C54.9334 52.5163 54.6587 52.6811 54.3841 52.8184C54.5214 52.9008 54.6587 52.9832 54.7961 53.0656C55.4003 53.5325 55.2905 54.0269 54.7411 54.3565C54.3291 54.5763 53.8622 54.7136 53.4227 54.8235C53.3129 54.8509 53.1755 54.7411 53.0382 54.7136L53.0107 54.6037Z" fill="#F0F1F4"/>
<path d="M49.1653 51.6648C49.4674 51.6373 49.7696 51.6099 50.0992 51.6099C50.8957 51.6373 51.6373 51.912 52.269 52.4064C52.7085 52.7635 52.681 53.2853 52.1592 53.5325C51.7197 53.7248 51.2802 53.8621 50.8133 53.9171C50.209 53.9445 49.5773 53.9445 48.973 53.9445L48.9456 53.8347C49.1928 53.7797 49.44 53.6973 49.6872 53.6424C50.2914 53.5325 50.9232 53.4776 51.5274 53.3677C51.7746 53.2853 51.9944 53.148 52.1866 52.9832C52.0218 52.7909 51.857 52.5987 51.6648 52.4613C51.0056 52.0768 50.264 51.912 49.4949 51.912C49.385 51.912 49.3026 51.912 49.1928 51.8845L49.1653 51.6648Z" fill="#F0F1F4"/>
<path d="M56.7736 52.9283C56.4989 52.791 56.2792 52.6811 56.0595 52.5713C56.0045 52.5438 55.9496 52.4614 55.9221 52.379C56.0045 52.3241 56.1144 52.2417 56.1693 52.2691C56.444 52.3515 56.7187 52.4889 56.9659 52.6537C57.2405 52.791 57.2131 53.203 56.9384 53.3129C56.5813 53.4777 56.1968 53.615 55.7848 53.6974C55.7299 53.7249 55.62 53.615 55.5376 53.5601C55.5925 53.4777 55.62 53.3403 55.7024 53.3129C55.9771 53.203 56.2517 53.1206 56.5264 53.0382C56.5813 53.0382 56.6912 52.9833 56.7736 52.9283Z" fill="#F0F1F4"/>
<path d="M44.1664 52.2415C43.9467 52.2415 43.8093 52.1591 43.8093 51.9119C43.8093 51.6647 43.9192 51.4724 44.1939 51.4724C44.7157 51.4999 44.6883 52.2689 44.1664 52.2415Z" fill="#F0F1F4"/>
<path d="M80.9993 51.6375H72.5396V51.8572H80.9993V51.6375Z" fill="#F0F1F4"/>
</svg>
